<svg id="Layer_1" data-name="Layer 1" xmlns="http://www.w3.org/2000/svg" xmlns:xlink="http://www.w3.org/1999/xlink" viewBox="0 0 1500 600"><defs><style>.cls-1{fill:url(#linear-gradient);}.cls-2,.cls-3{fill:#1b2e51;}.cls-3{font-size:114.89px;font-family:Didot-HTF-M64-Medium-Ital, Didot;font-style:italic;letter-spacing:-0.06em;}.cls-4{letter-spacing:0em;}</style><linearGradient id="linear-gradient" x1="417.56" y1="150.12" x2="239.58" y2="498.84" gradientUnits="userSpaceOnUse"><stop offset="0" stop-color="#ffae00"/><stop offset="1" stop-color="#ec8020"/></linearGradient></defs><path class="cls-1" d="M429.13,293.53c-13.58-26.69-31.2-51.33-48.24-75.16-11.5-16.09-23.39-32.72-33.74-49.61-6.54-10.68-12.87-21.66-18.81-32.63-4.74-8.76-15-28.23-15.08-28.43l-9.13-17.37-9,17.45c-.13.25-13,25.22-14.5,28.3-4,8.24-14.15,25.94-19.33,33.82-9.39,14.29-18.89,27.68-28.09,40.66-21.36,30.14-41.53,58.61-58.37,94.83C154.09,350,158.19,408.22,181.27,451.6c30.93,58.1,133.17,90.6,159,9.33,7-22,3-46.34-6.28-67.49s-23.44-39.73-37.47-58.07c17.71,19,35.71,38.48,46.83,62s14.45,52.18,2.39,75.22c24.57-14,31.22-47.93,23.37-75.1s-26.6-49.58-43.44-72.31c-7.58-10.24-15.09-21.31-16.49-34s5.5-27.16,17.94-29.93c9.37-2.08,19.21,3.06,25.2,10.56s8.81,17,11,26.35c3.8-21.91-9.15-45.28-29.25-54.79s-45.59-5.18-62.29,9.5-24.29,38.59-20.4,60.48c3.55,20,15.54,37.33,27.84,53.47s25.46,32.22,32.07,51.41,5.22,42.64-9.09,57c-12.26,12.3-31.71,15.41-48.53,11.08-48.51-12.48-73.17-63.8-73.36-110.3a147.19,147.19,0,0,1,12.5-60.95q.24-.56.51-1.11c16-34.53,35.71-62.26,56.52-91.62,9.28-13.1,18.88-26.65,28.49-41.26C284,172.56,294.6,154,299,145.05c.46-.94,2.3-4.54,5.35-10.5,2.59,4.89,4.62,8.68,6,11.3,6.11,11.29,12.63,22.59,19.36,33.58,10.72,17.51,22.83,34.44,34.54,50.82,16.6,23.22,33.77,47.23,46.64,72.54,14.2,27.92,20.09,59.12,16.57,87.87-3.85,31.46-18.75,57.45-43.1,75.13-1.31.95-2.65,1.89-4,2.79a126.85,126.85,0,0,1-15.21,8.63,27.36,27.36,0,0,0-15.45,24.56v3.05l2.92-.89a150,150,0,0,0,39.06-18.35c1.59-1.06,3.16-2.16,4.68-3.26,29.06-21.11,46.82-51.95,51.38-89.18C451.77,360.4,445.15,325,429.13,293.53Z"/><path class="cls-2" d="M596.91,300.56a57.41,57.41,0,0,1-27.61,32.75Q558.89,339,544.77,339a45.42,45.42,0,0,1-12.84-1.67,101.47,101.47,0,0,1-10.27-3.6q-4.62-1.92-8.09-3.59a15.06,15.06,0,0,0-6.55-1.67,12.9,12.9,0,0,0-8.73,3.08,12.26,12.26,0,0,0-4.37,6.68q0,.51-2.31.51c-1.37,0-2.06-.17-2.06-.51V279.63c0-.34.69-.51,2.06-.51q2.31,0,2.31.51a49.1,49.1,0,0,0,3.6,17.21,64.07,64.07,0,0,0,10.3,17.72,60.12,60.12,0,0,0,16,13.74,40,40,0,0,0,20.87,5.52,46.72,46.72,0,0,0,18-3.21,42.14,42.14,0,0,0,13-8.2,33,33,0,0,0,10.43-23.73q0-9.23-3-15.38a28.9,28.9,0,0,0-9.27-10.77,78.13,78.13,0,0,0-16.23-8.72q-9.92-4.11-23.56-9.5a101.9,101.9,0,0,1-15.71-7.69,54.82,54.82,0,0,1-12.62-10.39,44.09,44.09,0,0,1-8.5-14.36,56.2,56.2,0,0,1-3.09-19.62,60.52,60.52,0,0,1,3.59-20.9,57.87,57.87,0,0,1,9.63-17.18,47.11,47.11,0,0,1,14.13-11.67,35.44,35.44,0,0,1,17.08-4.37,41.74,41.74,0,0,1,10.14,1,39.06,39.06,0,0,1,6.94,2.44c2,.94,3.76,1.76,5.39,2.44a14.74,14.74,0,0,0,5.78,1c3.59,0,6-.68,7.32-2.06a9.51,9.51,0,0,0,2.44-4.11q0-.51,2.31-.51t2.31.51v44.18q0,.51-2.31.51t-2.31-.51a42.42,42.42,0,0,0-3.08-16.57,37.49,37.49,0,0,0-8.35-12.45,37.9,37.9,0,0,0-12.07-8,36.72,36.72,0,0,0-14.26-2.83A30.53,30.53,0,0,0,526,156,34.83,34.83,0,0,0,515.75,163a31,31,0,0,0-6.81,10.4,32.92,32.92,0,0,0-2.44,12.46,29.21,29.21,0,0,0,2.57,12.45,31.5,31.5,0,0,0,8,10.28,67,67,0,0,0,13.62,9,200.83,200.83,0,0,0,19.52,8.6,201.48,201.48,0,0,1,20.8,9.12,64.39,64.39,0,0,1,15.79,11.17,44.17,44.17,0,0,1,10,14.77q3.47,8.34,3.47,20.16A61.45,61.45,0,0,1,596.91,300.56Z"/><path class="cls-2" d="M678.06,273.08a55.49,55.49,0,0,0-1.28,7.32H619c-.34,0-.34-.34,0-1a21.58,21.58,0,0,0,2.19-5.78c.42-2,.81-4.4,1.15-7.32h58.3c.34,0,.34.35,0,1A20.51,20.51,0,0,0,678.06,273.08Z"/><path class="cls-2" d="M834,230.7a47.46,47.46,0,0,1-12.46,16.57A58.2,58.2,0,0,1,802,258.06a79.93,79.93,0,0,1-25.55,3.85,86.69,86.69,0,0,1-13.23-.9,105.18,105.18,0,0,1-10.66-2.18v69.6c0,.68.51,1,1.54,1h20.81c.34,0,.51.86.51,2.57s-.17,2.57-.51,2.57h-73.2c-.17,0-.26-.85-.26-2.57s.09-2.57.26-2.57H723c.85,0,1.28-.34,1.28-1V158.66c0-.68-.43-1-1.28-1H701.69c-.17,0-.26-.86-.26-2.57s.09-2.57.26-2.57h70.37q16.19,0,28.51,4.49a60.78,60.78,0,0,1,20.67,12.2A51.79,51.79,0,0,1,834,187.3a57,57,0,0,1,4.36,22.22A50.86,50.86,0,0,1,834,230.7Zm-26.2-44.94a44.93,44.93,0,0,0-8-16.18,30.13,30.13,0,0,0-12.2-9.12,41.56,41.56,0,0,0-15.54-2.82h-18c-1,0-1.54.34-1.54,1v94A34,34,0,0,0,763.33,256a96.94,96.94,0,0,0,13.1.77,44.91,44.91,0,0,0,14.76-2.18A23.28,23.28,0,0,0,801.85,247q4.36-5.38,6.55-14.51t2.18-23A87.43,87.43,0,0,0,807.76,185.76Z"/><path class="cls-2" d="M997.3,157.64a.9.9,0,0,0-1,1v122a81.66,81.66,0,0,1-3.34,24.14,44.85,44.85,0,0,1-28.38,30.05q-10.92,4.09-25.81,4.11a83.79,83.79,0,0,1-24.66-3.47,51.45,51.45,0,0,1-19.39-10.66A48.8,48.8,0,0,1,882.11,307q-4.5-10.65-4.5-25V158.66c0-.68-.43-1-1.28-1H855.27c-.35,0-.51-.86-.51-2.57s.16-2.57.51-2.57H928c.34,0,.52.86.52,2.57s-.18,2.57-.52,2.57h-20.8q-1.8,0-1.8,1V281.94q0,26.46,10,38.14t29.53,11.69q12.08,0,20.81-3.73a38.11,38.11,0,0,0,14.38-10.4,42.65,42.65,0,0,0,8.34-16.18,75.88,75.88,0,0,0,2.7-20.8v-122c0-.68-.43-1-1.28-1H971.36c-.35,0-.52-.86-.52-2.57s.17-2.57.52-2.57h47.25c.34,0,.52.86.52,2.57s-.18,2.57-.52,2.57Z"/><path class="cls-2" d="M1193.13,336.39a29.51,29.51,0,0,1-13,2.57,39.05,39.05,0,0,1-14.13-2.57,28.75,28.75,0,0,1-11.69-8.48,43.58,43.58,0,0,1-8-15.41q-3-9.5-3-23.37V272.44a33.63,33.63,0,0,0-2.7-14.26,22.56,22.56,0,0,0-7.7-9.24,33.63,33.63,0,0,0-11.82-5,66.61,66.61,0,0,0-14.76-1.54h-20.81v86q0,1,1.8,1h24.66v5.14h-77c-.35,0-.51-.85-.51-2.57s.16-2.57.51-2.57h21.06c1,0,1.54-.34,1.54-1V158.66c0-.68-.51-1-1.54-1h-21.06c-.35,0-.51-.86-.51-2.57s.16-2.57.51-2.57H1108a76.24,76.24,0,0,1,23.88,3.47,54.58,54.58,0,0,1,17.85,9.5A42.39,42.39,0,0,1,1161,179.6a39.35,39.35,0,0,1,4,17.59,35.85,35.85,0,0,1-4,16.69,46,46,0,0,1-10.53,13.49,49.92,49.92,0,0,1-15.15,9.11,48.87,48.87,0,0,1-17.85,3.34,70,70,0,0,1,23.88,3.73,46.62,46.62,0,0,1,17.08,10.4,43.5,43.5,0,0,1,10.28,15.79,55.59,55.59,0,0,1,3.46,19.91v23.11q0,9.76,4,14.25a13.5,13.5,0,0,0,10.65,4.5,17.94,17.94,0,0,0,7.19-1.16,18.87,18.87,0,0,0,5.4-4c.17-.17.72.35,1.67,1.54s1.24,1.89.9,2.06A30,30,0,0,1,1193.13,336.39Zm-58.69-158.08a30.28,30.28,0,0,0-6.68-12.45,23.07,23.07,0,0,0-10.78-6.43,54.85,54.85,0,0,0-14.64-1.79h-14.9q-1.8,0-1.8,1v78.59h20.81a59,59,0,0,0,14.64-1.54,17.39,17.39,0,0,0,9.37-5.78q3.46-4.23,4.88-11.81a113,113,0,0,0,1.41-19.9Q1136.75,186.15,1134.44,178.31Z"/><path class="cls-2" d="M1337.85,334.59H1202.76c-.18,0-.26-.85-.26-2.57s.08-2.57.26-2.57h21.06c1,0,1.54-.34,1.54-1V158.66c0-.68-.52-1-1.54-1h-21.06c-.18,0-.26-.86-.26-2.57s.08-2.57.26-2.57h123c.34,0,.51.26.51.77v48.54c0,.35-.77.51-2.31.51s-2.31-.16-2.31-.51a60.58,60.58,0,0,0-2.31-16.95,39.68,39.68,0,0,0-7.19-14,34.47,34.47,0,0,0-12.85-9.63q-8-3.58-19-3.59h-25.17c-1.37,0-2.06.34-2.06,1v79.88h8q14.64,0,22.21-8t7.58-21.32c0-.34.68-.51,2.05-.51q2.31,0,2.31.51V273c0,.35-.77.52-2.31.52-1.37,0-2.05-.17-2.05-.52q0-13.09-7.58-21.19t-22.21-8.09h-8v84.76c0,.68.69,1,2.06,1h25.94q14.64,0,24.78-4a40.74,40.74,0,0,0,25.3-26.45,61.91,61.91,0,0,0,2.83-18.88q0-.51,2.31-.51t2.31.51v53.68A.68.68,0,0,1,1337.85,334.59Z"/><text class="cls-3" transform="translate(489.55 462.5)">J<tspan class="cls-4" x="58.25" y="0">ust Goodness</tspan></text></svg>